<svg aria-hidden="true" style="position: absolute; width: 0; height: 0; overflow: hidden;" version="1.1" xmlns="http://www.w3.org/2000/svg" xmlns:xlink="http://www.w3.org/1999/xlink">
<defs>
<symbol id="icon-padlock_icon-iconscom_73471" viewBox="0 0 32 32">
<path d="M28.454 15.182c-0.424-0.424-0.939-0.636-1.546-0.636h-0.727v-4.364c0-2.788-1-5.182-3-7.182s-4.393-3-7.182-3c-2.788 0-5.182 1-7.182 3s-3 4.394-3 7.182v4.364h-0.727c-0.606 0-1.121 0.212-1.545 0.636s-0.636 0.939-0.636 1.546v13.091c0 0.606 0.212 1.121 0.636 1.546s0.94 0.636 1.545 0.636h21.818c0.606 0 1.121-0.212 1.546-0.636s0.636-0.94 0.636-1.546v-13.091c0-0.606-0.212-1.121-0.637-1.545zM21.818 14.546h-11.636v-4.364c0-1.606 0.568-2.977 1.705-4.113s2.508-1.704 4.114-1.704c1.606 0 2.977 0.568 4.114 1.704s1.704 2.507 1.704 4.113v4.364z"></path>
</symbol>
<symbol id="icon-cloud_115543" viewBox="0 0 32 32">
<path d="M29.2 17.5c-0.835-2.5-4-2.355-4-2.355 0.043-0.301 0.068-0.649 0.068-1.002 0-0.226-0.010-0.45-0.030-0.671l0.002 0.029c-0.085-0.77-0.69-3.23-3.165-3.935-0.412-0.12-0.884-0.189-1.373-0.189-1.103 0-2.124 0.352-2.957 0.95l0.015-0.010s-1.27-2.145-3.5-2.71-3.935-0.165-6 0.77-3.455 2.44-3.875 4.73 0.75 3.46 0.75 3.46-1.835 0.435-2.395 1.75c-0.263 0.549-0.416 1.194-0.416 1.875s0.154 1.326 0.428 1.902l-0.011-0.027c0.54 1.145 2.595 2.225 3.935 2.5 1.21 0.225 4.045 0.040 7.295 0s6.5-0.21 9.665-0.105 4.355-0.5 5.23-2.045 1.165-2.415 0.335-4.915zM28.595 19.835s-1.145-2.375-1.335-2.375-0.375 0.25-0.27 0.33 1.56 2.625 1.5 2.855-0.335 0.855-0.395 0.75-1.095-2.665-1.315-2.665-0.28 0.23-0.28 0.27 1.375 2.9 1.31 3-0.415 0.77-0.5 0.625-1.27-3.080-1.5-3.080-0.5 0.205-0.435 0.29 1.685 3.040 1.5 3.105-0.855 0.355-0.895 0.23-1.135-2.67-1.345-2.67c-0.168 0.013-0.3 0.147-0.31 0.314l-0 0.001c0 0.060 1.29 2.435 1.165 2.435s-0.625 0.145-0.73 0-1.125-2.455-1.27-2.5-0.415 0.17-0.415 0.17 1.29 2.455 1.080 2.5-0.605 0.080-0.685 0-1.085-2.335-1.21-2.355-0.355 0.040-0.355 0.165 1 2.165 0.895 2.165-0.705 0.19-0.725 0-0.65-2.145-0.835-2.185-0.46 0-0.395 0.185c0.213 0.539 0.42 1.207 0.583 1.893l0.022 0.108c-0.085 0-0.295 0.065-0.4 0s-0.79-1.85-0.895-1.895-0.395 0.15-0.355 0.275 0.73 1.58 0.67 1.58-0.67 0.125-0.77 0.045-0.605-1.4-0.7-1.44-0.5 0-0.44 0.23 0.565 1.27 0.42 1.27c-0.15 0.015-0.324 0.024-0.5 0.024s-0.35-0.009-0.522-0.025l0.022 0.002c0-0.065-0.29-1-0.415-1s-0.5 0-0.44 0.145 0.315 1 0.165 1-5.645 0-7.375 0.105-2.080 0.105-3-0.065c-1.152-0.272-2.153-0.809-2.971-1.545l0.006 0.005c-0.835-0.895-0.67-2.895-0.19-3.605 0.504-0.649 1.22-1.112 2.042-1.286l0.023-0.004c0.5 0 0.915 0 0.915 0s-0.040-0.375-0.21-0.44c-0.767-0.617-1.254-1.556-1.254-2.608 0-0.057 0.001-0.113 0.004-0.169l-0 0.008c0.045-1.73 1-3.29 3.045-4.435s2.955-1.295 5.31-1.085c1.48 0.042 2.715 1.049 3.099 2.412l0.006 0.023c0.003 0.3 0.121 0.572 0.311 0.776l-0.001-0.001c0.21 0.225 0.625 0.35 0.71 0.25s0-1.15 2.19-1.44 3.5 0.77 4.040 2.315c0.175 0.399 0.277 0.865 0.277 1.354 0 0.48-0.098 0.938-0.276 1.353l0.009-0.023c-0.025 0.075-0.040 0.16-0.040 0.25 0 0.172 0.054 0.332 0.146 0.463l-0.002-0.003c0.145 0.19 0.435 0.375 0.625 0.23 0.313-0.214 0.701-0.341 1.117-0.341 0.256 0 0.501 0.048 0.726 0.136l-0.014-0.005c0.882 0.279 1.573 0.936 1.893 1.775l0.007 0.020c0.112 0.36 0.176 0.774 0.176 1.203 0 0.207-0.015 0.41-0.044 0.609l0.003-0.023zM5.175 18.44c-0.79 0.23-0.975 1.705-0.875 2.23s0.42 0.5 0.65 0.435 0.040-0.335 0.060-0.96c0.087-0.537 0.309-1.011 0.629-1.4l-0.004 0.005c0.165-0.29-0.175-0.395-0.46-0.31zM8.26 11.085c-0.747 0.511-1.237 1.351-1.26 2.307l-0 0.003c0 0.275 0.415 0.23 0.625 0.125s0.27-0.625 0.355-0.935c0.273-0.691 0.809-1.227 1.482-1.494l0.018-0.006c1-0.42 0.77-0.5 0.625-0.73s-0.635-0.185-1.845 0.73zM20.325 11.5c-0.565 0.165-0.315 0.5-0.315 0.5s0.105 0.23 0.79 0.42c0.406 0.097 0.735 0.363 0.916 0.717l0.004 0.008c0.071 0.083 0.176 0.135 0.293 0.135 0.094 0 0.181-0.034 0.248-0.090l-0.001 0c0.19-0.125 0.315-0.23-0.185-0.92-0.402-0.473-0.998-0.772-1.664-0.772-0.030 0-0.060 0.001-0.090 0.002l0.004-0z"></path>
</symbol>
<symbol id="icon-Google_Drive_icon-iconscom_68962" viewBox="0 0 32 32">
<path d="M31.997 20.051c-0.145 0.008-0.248 0.018-0.351 0.018-2.895 0.017-5.79 0.030-8.684 0.055-0.278 0.002-0.438-0.070-0.584-0.325-3.356-5.832-6.724-11.658-10.089-17.485-0.057-0.099-0.108-0.202-0.179-0.338 0.146-0.009 0.249-0.019 0.352-0.020 2.919-0.015 5.837-0.026 8.756-0.051 0.25-0.002 0.373 0.087 0.493 0.295 3.366 5.84 6.739 11.677 10.11 17.514 0.057 0.099 0.107 0.202 0.178 0.336z"></path>
<path d="M4.706 29.175c-0.076-0.119-0.135-0.206-0.187-0.297-1.475-2.528-2.948-5.057-4.428-7.582-0.107-0.183-0.127-0.322-0.015-0.515 3.419-5.907 6.832-11.817 10.247-17.727 0.024-0.041 0.052-0.079 0.101-0.152 0.065 0.096 0.125 0.174 0.174 0.258 1.482 2.538 2.961 5.077 4.447 7.612 0.108 0.184 0.124 0.323 0.013 0.516-3.419 5.907-6.832 11.818-10.246 17.728-0.024 0.041-0.052 0.079-0.106 0.16z"></path>
<path d="M32 21.902c-0.062 0.122-0.096 0.196-0.136 0.265-1.465 2.56-2.932 5.118-4.391 7.681-0.101 0.177-0.208 0.246-0.415 0.246-6.82-0.006-13.64-0.005-20.461-0.005-0.058 0-0.116-0.006-0.216-0.012 0.054-0.111 0.093-0.205 0.143-0.291 1.451-2.54 2.906-5.078 4.352-7.621 0.111-0.196 0.226-0.284 0.466-0.284 6.785 0.008 13.569 0.006 20.354 0.007 0.082 0 0.163 0.008 0.302 0.015z"></path>
</symbol>
<symbol id="icon-cloud-full-of-rain_icon-iconscom_54032" viewBox="0 0 32 32">
<path d="M6 14c0-4.418 3.582-8 8-8 2.996 0 5.61 1.648 6.978 4.086 0.332-0.056 0.674-0.086 1.022-0.086 2.708 0 5 1.794 5.744 4.262 2.464 0.754 4.256 3.040 4.256 5.738 0 3.314-2.674 6-6.020 6h-19.96c-3.324 0-6.020-2.694-6.020-6s2.664-5.99 6-6z"></path>
</symbol>
</defs>
</svg>